<?xml version="1.0" ?><!DOCTYPE svg  PUBLIC '-//W3C//DTD SVG 1.1//EN'  'http://www.w3.org/Graphics/SVG/1.1/DTD/svg11.dtd'><svg enable-background="new 0 0 50 50" height="50px" id="Layer_1" version="1.1" viewBox="0 0 50 50" width="50px" xml:space="preserve" xmlns="http://www.w3.org/2000/svg" xmlns:xlink="http://www.w3.org/1999/xlink"><g><g><path d="M25,11c-6.1,0-11.1,4.6-11.1,10.5c0,7.8,6.5,8.4,6.5,15.5H25V11z" fill="#FCDA4C"/></g></g><g><g><path d="M25,11c6.1,0,11.1,4.6,11.1,10.5c0,7.8-6.5,8.4-6.5,15.5H25V11z" fill="#FCDA4C"/></g></g><g opacity="0.1"><g><path d="M36.1,21.5c0,7.8-6.5,8.4-6.5,15.5h-3.7c0-7.1,4.6-7.7,4.6-15.5c0-5.1-2.4-9.2-5.6-10.3V11C31.1,11,36.1,15.6,36.1,21.5z"/></g></g><g opacity="0.2"><g><path d="M21.4,36c-0.2-3-1.8-5-3.4-6.9c-1.7-2-3.3-3.9-3.3-7.6c0-4.3,2.8-7.8,6.8-9.1c-1.9,2.1-3.1,5.3-3.1,9.1    c0,4.2,1.2,6.4,2.3,8.5c0.9,1.7,1.8,3,1.9,6H21.4z" fill="#FFFFFF"/></g></g><g><g><path d="M29.9,38h-9.7c-0.2,0-0.1,0.1-0.1-0.2v0c0-0.3-0.1-0.8,0.1-0.8h9.7c0.2,0,0.1,0.4,0.1,0.8v0    C30,38.1,30.1,38,29.9,38z" fill="#90989A"/></g></g><g><g><path d="M25.4,48h-0.8c-0.7,0-1.6-1-1.6-1.7V46h4v0.3C27,47,26.1,48,25.4,48z" fill="#90989A"/></g></g><g><g><path d="M28.2,46h-6.5c-0.9,0-1.8-0.4-1.8-1.3V37h10v7.7C30,45.6,29.1,46,28.2,46z" fill="#D6DADC"/></g></g><g opacity="0.4"><defs><path d="M28.2,46h-6.5c-0.9,0-1.8-0.4-1.8-1.3V38h10v6.7C30,45.6,29.1,46,28.2,46z" id="SVGID_1_" opacity="0.4"/></defs><clipPath id="SVGID_2_"><use overflow="visible" xlink:href="#SVGID_1_"/></clipPath><g clip-path="url(#SVGID_2_)"><g><g><rect fill="#5D6A70" height="0.8" transform="matrix(-0.9776 0.2106 -0.2106 -0.9776 45.1962 103.0798)" width="38.6" x="-2.2" y="53.5"/></g></g><g><g><rect fill="#5D6A70" height="0.8" transform="matrix(-0.9776 0.2106 -0.2106 -0.9776 47.6638 98.188)" width="38.6" x="-0.7" y="51.2"/></g></g><g><g><rect fill="#5D6A70" height="0.8" transform="matrix(-0.9776 0.2106 -0.2106 -0.9776 50.1313 93.2963)" width="38.6" x="0.8" y="48.9"/></g></g><g><g><rect fill="#5D6A70" height="0.8" transform="matrix(-0.9776 0.2106 -0.2106 -0.9776 52.5988 88.4045)" width="38.6" x="2.3" y="46.6"/></g></g><g><g><rect fill="#5D6A70" height="0.8" transform="matrix(-0.9776 0.2106 -0.2106 -0.9776 55.0664 83.5128)" width="38.6" x="3.8" y="44.3"/></g></g><g><g><rect fill="#5D6A70" height="0.8" transform="matrix(-0.9776 0.2106 -0.2106 -0.9776 57.5339 78.621)" width="38.6" x="5.3" y="42"/></g></g><g><g><rect fill="#5D6A70" height="0.8" transform="matrix(-0.9776 0.2106 -0.2106 -0.9776 60.0014 73.7293)" width="38.6" x="6.8" y="39.6"/></g></g><g><g><rect fill="#5D6A70" height="0.8" transform="matrix(-0.9776 0.2106 -0.2106 -0.9776 62.469 68.8375)" width="38.6" x="8.3" y="37.3"/></g></g><g><g><rect fill="#5D6A70" height="0.8" transform="matrix(-0.9776 0.2106 -0.2106 -0.9776 64.9365 63.9458)" width="38.6" x="9.8" y="35"/></g></g><g><g><rect fill="#5D6A70" height="0.8" transform="matrix(-0.9776 0.2106 -0.2106 -0.9776 67.4041 59.054)" width="38.6" x="11.3" y="32.7"/></g></g><g><g><rect fill="#5D6A70" height="0.8" transform="matrix(-0.9776 0.2106 -0.2106 -0.9776 69.8716 54.1623)" width="38.6" x="12.8" y="30.4"/></g></g><g><g><rect fill="#5D6A70" height="38.6" transform="matrix(-0.2106 -0.9776 0.9776 -0.2106 12.7624 67.2788)" width="0.8" x="33.1" y="9.2"/></g></g></g></g><g opacity="0.2"><g><path d="M30,37v7.7c0,0.9-0.9,1.3-1.8,1.3h-4c0.9,0,1.8-0.4,1.8-1.3V37H30z"/></g></g><g><g><g><path d="M25,9c-0.6,0-1-0.4-1-1V2c0-0.6,0.4-1,1-1s1,0.4,1,1v6C26,8.6,25.6,9,25,9z" fill="#FCDA4C"/></g></g><g><g><path d="M34.9,13.1c-0.3,0-0.5-0.1-0.7-0.3c-0.4-0.4-0.4-1,0-1.4l4.2-4.2c0.4-0.4,1-0.4,1.4,0s0.4,1,0,1.4     l-4.2,4.2C35.4,13,35.2,13.1,34.9,13.1z" fill="#FCDA4C"/></g></g><g><g><path d="M45,23h-6c-0.6,0-1-0.4-1-1s0.4-1,1-1h6c0.6,0,1,0.4,1,1S45.6,23,45,23z" fill="#FCDA4C"/></g></g><g><g><path d="M39.1,37.1c-0.3,0-0.5-0.1-0.7-0.3l-4.2-4.2c-0.4-0.4-0.4-1,0-1.4s1-0.4,1.4,0l4.2,4.2     c0.4,0.4,0.4,1,0,1.4C39.7,37,39.4,37.1,39.1,37.1z" fill="#FCDA4C"/></g></g><g><g><path d="M10.9,37.1c-0.3,0-0.5-0.1-0.7-0.3c-0.4-0.4-0.4-1,0-1.4l4.2-4.2c0.4-0.4,1-0.4,1.4,0s0.4,1,0,1.4     l-4.2,4.2C11.4,37,11.1,37.1,10.9,37.1z" fill="#FCDA4C"/></g></g><g><g><path d="M11,23H5c-0.6,0-1-0.4-1-1s0.4-1,1-1h6c0.6,0,1,0.4,1,1S11.6,23,11,23z" fill="#FCDA4C"/></g></g><g><g><path d="M15.1,13.1c-0.3,0-0.5-0.1-0.7-0.3l-4.2-4.2c-0.4-0.4-0.4-1,0-1.4s1-0.4,1.4,0l4.2,4.2     c0.4,0.4,0.4,1,0,1.4C15.6,13,15.4,13.1,15.1,13.1z" fill="#FCDA4C"/></g></g></g></svg>